<svg xmlns="http://www.w3.org/2000/svg" viewBox="0 0 512 512"><defs><linearGradient id="b" x1="0" y1="0" x2="1" y2="1"><stop stop-color="#18372f"/><stop offset="1" stop-color="#0b1b19"/></linearGradient><linearGradient id="c" x1="0" y1="0" x2="0" y2="1"><stop stop-color="#fff8eb"/><stop offset="1" stop-color="#e7d7ba"/></linearGradient></defs><rect width="512" height="512" rx="112" fill="url(#b)"/><path d="M64 366h384v40H64z" fill="#c4a56a" opacity=".72"/><g transform="rotate(-12 222 255)"><rect x="112" y="92" width="190" height="276" rx="18" fill="#09130f" opacity=".42"/><rect x="98" y="78" width="190" height="276" rx="18" fill="url(#c)" stroke="#b98e50" stroke-width="8"/><path d="M193 160l18 34 38 5-28 27 7 38-35-18-35 18 7-38-28-27 38-5z" fill="#b85c4d"/><text x="119" y="124" font-family="Georgia,serif" font-size="38" font-weight="700" fill="#25352e">9</text></g><g transform="rotate(12 316 250)"><rect x="222" y="92" width="190" height="276" rx="18" fill="#09130f" opacity=".42"/><rect x="208" y="78" width="190" height="276" rx="18" fill="url(#c)" stroke="#b98e50" stroke-width="8"/><path d="M303 160l18 34 38 5-28 27 7 38-35-18-35 18 7-38-28-27 38-5z" fill="#397c72"/><text x="229" y="124" font-family="Georgia,serif" font-size="38" font-weight="700" fill="#25352e">10</text></g></svg>
